<?xml version="1.0" standalone="no"?>
<!DOCTYPE svg PUBLIC "-//W3C//DTD SVG 20010904//EN"
 "http://www.w3.org/TR/2001/REC-SVG-20010904/DTD/svg10.dtd">
<svg version="1.0" xmlns="http://www.w3.org/2000/svg"
 width="380.000000pt" height="380.000000pt" viewBox="0 0 380.000000 380.000000"
 preserveAspectRatio="xMidYMid meet">
<metadata>
Created by potrace 1.14, written by Peter Selinger 2001-2017
</metadata>
<g transform="translate(0.000000,380.000000) scale(0.100000,-0.100000)"
fill="#000000" stroke="none">
<path d="M1039 3196 c-4 -52 0 -338 5 -343 3 -3 6 18 6 48 l0 54 21 -32 c11
-17 39 -41 63 -52 39 -20 60 -21 304 -21 l262 0 1 -22 c0 -13 1 -539 1 -1170
l1 -1148 31 -1 c34 0 210 0 266 1 l35 0 0 1348 0 1347 -498 1 c-363 1 -497 -1
-498 -10z"/>
<path d="M2375 3201 c6 -11 45 -10 45 1 0 4 -12 8 -26 8 -14 0 -23 -4 -19 -9z"/>
<path d="M2430 3198 c0 -5 5 -6 10 -3 20 13 9 -12 -16 -36 -44 -40 -54 -78
-54 -199 l0 -110 166 0 c97 0 163 4 160 9 -4 5 -22 8 -41 7 -19 -2 -35 -1 -35
1 0 3 15 23 34 44 40 48 46 72 46 199 l0 98 -135 0 c-77 0 -135 -4 -135 -10z"/>
</g>
</svg>
